<?xml version="1.0" standalone="yes"?>
<svg xmlns="http://www.w3.org/2000/svg" width="512" height="512">
<path style="fill:#ffffff; stroke:none;" d="M0 0L0 512L512 512L512 0L0 0z"/>
<path style="fill:#8dc6ff; stroke:none;" d="M114 78L114 79L174 79L155 78L114 78z"/>
<path style="fill:#cbe5ff; stroke:none;" d="M314 78L313 80L314 78z"/>
<path style="fill:#8dc6ff; stroke:none;" d="M315 78L315 79L389 79L366 78L315 78z"/>
<path style="fill:#55abff; stroke:none;" d="M114 79L114 434L174 434L174 352L174.603 316L183.715 305L209 280L236.87 318L295.424 395L316.127 422L326.174 433.397L348 434L397 434C387.58 415.086 370.545 397.734 357.651 381C334.162 350.514 311.102 319.683 287.87 289C278.509 276.636 269.117 264.285 259.651 252C256.905 248.436 249.718 241.766 249.951 237C250.166 232.589 256.117 228.043 258.834 225C267.462 215.338 276.174 205.738 284.715 196C307.048 170.539 329.609 145.262 352.166 120C364.08 106.657 377.895 93.7776 388 79L337 79L315.09 79.6034L301.715 93L273.831 124L174 235L174 79L114 79z"/>
<path style="fill:#cbe5ff; stroke:none;" d="M388 79L389 80L388 79M387 80L388 81L387 80z"/>
<path style="fill:#afd7ff; stroke:none;" d="M386 81L387 82L386 81z"/>
<path style="fill:#8dc6ff; stroke:none;" d="M311 82L312 83L311 82M385 82L386 83L385 82M310 83L311 84L310 83M384 83L385 84L384 83M309 84L310 85L309 84M383 84L384 85L383 84z"/>
<path style="fill:#afd7ff; stroke:none;" d="M308 85L309 86L308 85M307 86L308 87L307 86z"/>
<path style="fill:#cbe5ff; stroke:none;" d="M306 87L307 88L306 87M381 87L382 88L381 87M305 88L306 89L305 88M380 88L381 89L380 88M304 89L305 90L304 89M379 89L380 90L379 89z"/>
<path style="fill:#afd7ff; stroke:none;" d="M378 90L379 91L378 90M377 91L378 92L377 91z"/>
<path style="fill:#8dc6ff; stroke:none;" d="M302 92L303 93L302 92M376 92L377 93L376 92M301 93L302 94L301 93M375 93L376 94L375 93M300 94L301 95L300 94z"/>
<path style="fill:#afd7ff; stroke:none;" d="M299 95L300 96L299 95M298 96L299 97L298 96z"/>
<path style="fill:#cbe5ff; stroke:none;" d="M373 96L374 97L373 96M297 97L298 98L297 97M372 97L373 98L372 97M296 98L297 99L296 98M371 98L372 99L371 98M295 99L296 100L295 99z"/>
<path style="fill:#afd7ff; stroke:none;" d="M370 99L371 100L370 99M369 100L370 101L369 100z"/>
<path style="fill:#8dc6ff; stroke:none;" d="M368 101L369 102L368 101M293 102L294 103L293 102M367 102L368 103L367 102M292 103L293 104L292 103M291 104L292 105L291 104z"/>
<path style="fill:#afd7ff; stroke:none;" d="M290 105L291 106L290 105z"/>
<path style="fill:#cbe5ff; stroke:none;" d="M365 105L366 106L365 105z"/>
<path style="fill:#afd7ff; stroke:none;" d="M289 106L290 107L289 106z"/>
<path style="fill:#cbe5ff; stroke:none;" d="M364 106L365 107L364 106M288 107L289 108L288 107M363 107L364 108L363 107M287 108L288 109L287 108z"/>
<path style="fill:#afd7ff; stroke:none;" d="M362 108L363 109L362 108M361 109L362 110L361 109z"/>
<path style="fill:#8dc6ff; stroke:none;" d="M360 110L361 111L360 110M359 111L360 112L359 111M284 112L285 113L284 112M358 112L359 113L358 112M283 113L284 114L283 113M282 114L283 115L282 114z"/>
<path style="fill:#cbe5ff; stroke:none;" d="M357 114L358 115L357 114z"/>
<path style="fill:#afd7ff; stroke:none;" d="M281 115L282 116L281 115z"/>
<path style="fill:#cbe5ff; stroke:none;" d="M356 115L357 116L356 115z"/>
<path style="fill:#afd7ff; stroke:none;" d="M280 116L281 117L280 116z"/>
<path style="fill:#cbe5ff; stroke:none;" d="M355 116L356 117L355 116M279 117L280 118L279 117z"/>
<path style="fill:#afd7ff; stroke:none;" d="M354 117L355 118L354 117z"/>
<path style="fill:#cbe5ff; stroke:none;" d="M278 118L279 119L278 118z"/>
<path style="fill:#afd7ff; stroke:none;" d="M353 118L354 119L353 118z"/>
<path style="fill:#8dc6ff; stroke:none;" d="M352 119L353 120L352 119M351 120L352 121L351 120M350 121L351 122L350 121M275 122L276 123L275 122M274 123L275 124L274 123M273 124L274 125L273 124z"/>
<path style="fill:#cbe5ff; stroke:none;" d="M348 124L349 125L348 124z"/>
<path style="fill:#afd7ff; stroke:none;" d="M272 125L273 126L272 125z"/>
<path style="fill:#cbe5ff; stroke:none;" d="M347 125L348 126L347 125z"/>
<path style="fill:#afd7ff; stroke:none;" d="M271 126L272 127L271 126M346 126L347 127L346 126z"/>
<path style="fill:#cbe5ff; stroke:none;" d="M270 127L271 128L270 127z"/>
<path style="fill:#afd7ff; stroke:none;" d="M345 127L346 128L345 127z"/>
<path style="fill:#cbe5ff; stroke:none;" d="M269 128L270 129L269 128z"/>
<path style="fill:#8dc6ff; stroke:none;" d="M344 128L345 129L344 128M343 129L344 130L343 129M342 130L343 131L342 130M266 132L267 133L266 132M265 133L266 134L265 133z"/>
<path style="fill:#cbe5ff; stroke:none;" d="M340 133L341 134L340 133z"/>
<path style="fill:#8dc6ff; stroke:none;" d="M264 134L265 135L264 134z"/>
<path style="fill:#cbe5ff; stroke:none;" d="M339 134L340 135L339 134z"/>
<path style="fill:#afd7ff; stroke:none;" d="M263 135L264 136L263 135M338 135L339 136L338 135M262 136L263 137L262 136M337 136L338 137L337 136z"/>
<path style="fill:#cbe5ff; stroke:none;" d="M261 137L262 138L261 137z"/>
<path style="fill:#8dc6ff; stroke:none;" d="M336 137L337 138L336 137z"/>
<path style="fill:#cbe5ff; stroke:none;" d="M260 138L261 139L260 138z"/>
<path style="fill:#8dc6ff; stroke:none;" d="M335 138L336 139L335 138M334 139L335 140L334 139M257 142L258 143L257 142z"/>
<path style="fill:#cbe5ff; stroke:none;" d="M332 142L333 143L332 142z"/>
<path style="fill:#8dc6ff; stroke:none;" d="M256 143L257 144L256 143z"/>
<path style="fill:#cbe5ff; stroke:none;" d="M331 143L332 144L331 143z"/>
<path style="fill:#8dc6ff; stroke:none;" d="M255 144L256 145L255 144z"/>
<path style="fill:#afd7ff; stroke:none;" d="M330 144L331 145L330 144M254 145L255 146L254 145M329 145L330 146L329 145M253 146L254 147L253 146z"/>
<path style="fill:#8dc6ff; stroke:none;" d="M328 146L329 147L328 146z"/>
<path style="fill:#cbe5ff; stroke:none;" d="M252 147L253 148L252 147z"/>
<path style="fill:#8dc6ff; stroke:none;" d="M327 147L328 148L327 147z"/>
<path style="fill:#cbe5ff; stroke:none;" d="M251 148L252 149L251 148z"/>
<path style="fill:#8dc6ff; stroke:none;" d="M326 148L327 149L326 148z"/>
<path style="fill:#cbe5ff; stroke:none;" d="M324 151L325 152L324 151z"/>
<path style="fill:#8dc6ff; stroke:none;" d="M248 152L249 153L248 152z"/>
<path style="fill:#cbe5ff; stroke:none;" d="M323 152L324 153L323 152z"/>
<path style="fill:#8dc6ff; stroke:none;" d="M247 153L248 154L247 153z"/>
<path style="fill:#afd7ff; stroke:none;" d="M322 153L323 154L322 153M246 154L247 155L246 154M321 154L322 155L321 154M245 155L246 156L245 155z"/>
<path style="fill:#8dc6ff; stroke:none;" d="M320 155L321 156L320 155z"/>
<path style="fill:#afd7ff; stroke:none;" d="M244 156L245 157L244 156z"/>
<path style="fill:#8dc6ff; stroke:none;" d="M319 156L320 157L319 156z"/>
<path style="fill:#cbe5ff; stroke:none;" d="M243 157L244 158L243 157z"/>
<path style="fill:#8dc6ff; stroke:none;" d="M318 157L319 158L318 157z"/>
<path style="fill:#cbe5ff; stroke:none;" d="M242 158L243 159L242 158M316 160L317 161L316 160M315 161L316 162L315 161z"/>
<path style="fill:#8dc6ff; stroke:none;" d="M239 162L240 163L239 162z"/>
<path style="fill:#afd7ff; stroke:none;" d="M314 162L315 163L314 162z"/>
<path style="fill:#8dc6ff; stroke:none;" d="M238 163L239 164L238 163z"/>
<path style="fill:#afd7ff; stroke:none;" d="M313 163L314 164L313 163M237 164L238 165L237 164z"/>
<path style="fill:#8dc6ff; stroke:none;" d="M312 164L313 165L312 164z"/>
<path style="fill:#afd7ff; stroke:none;" d="M236 165L237 166L236 165z"/>
<path style="fill:#8dc6ff; stroke:none;" d="M311 165L312 166L311 165z"/>
<path style="fill:#afd7ff; stroke:none;" d="M235 166L236 167L235 166z"/>
<path style="fill:#8dc6ff; stroke:none;" d="M310 166L311 167L310 166z"/>
<path style="fill:#cbe5ff; stroke:none;" d="M234 167L235 168L234 167M233 168L234 169L233 168M308 169L309 170L308 169M307 170L308 171L307 170M306 171L307 172L306 171z"/>
<path style="fill:#8dc6ff; stroke:none;" d="M230 172L231 173L230 172z"/>
<path style="fill:#afd7ff; stroke:none;" d="M305 172L306 173L305 172z"/>
<path style="fill:#8dc6ff; stroke:none;" d="M229 173L230 174L229 173z"/>
<path style="fill:#afd7ff; stroke:none;" d="M304 173L305 174L304 173M228 174L229 175L228 174z"/>
<path style="fill:#8dc6ff; stroke:none;" d="M303 174L304 175L303 174z"/>
<path style="fill:#afd7ff; stroke:none;" d="M227 175L228 176L227 175z"/>
<path style="fill:#8dc6ff; stroke:none;" d="M302 175L303 176L302 175z"/>
<path style="fill:#afd7ff; stroke:none;" d="M226 176L227 177L226 176z"/>
<path style="fill:#cbe5ff; stroke:none;" d="M225 177L226 178L225 177M224 178L225 179L224 178M300 178L301 179L300 178M299 179L300 180L299 179M298 180L299 181L298 180z"/>
<path style="fill:#8dc6ff; stroke:none;" d="M222 181L223 182L222 181z"/>
<path style="fill:#afd7ff; stroke:none;" d="M297 181L298 182L297 181z"/>
<path style="fill:#8dc6ff; stroke:none;" d="M221 182L222 183L221 182z"/>
<path style="fill:#afd7ff; stroke:none;" d="M296 182L297 183L296 182z"/>
<path style="fill:#8dc6ff; stroke:none;" d="M220 183L221 184L220 183M295 183L296 184L295 183z"/>
<path style="fill:#afd7ff; stroke:none;" d="M219 184L220 185L219 184z"/>
<path style="fill:#8dc6ff; stroke:none;" d="M294 184L295 185L294 184z"/>
<path style="fill:#afd7ff; stroke:none;" d="M218 185L219 186L218 185M217 186L218 187L217 186z"/>
<path style="fill:#cbe5ff; stroke:none;" d="M216 187L217 188L216 187M292 187L293 188L292 187M215 188L216 189L215 188M291 188L292 189L291 188M290 189L291 190L290 189z"/>
<path style="fill:#afd7ff; stroke:none;" d="M289 190L290 191L289 190z"/>
<path style="fill:#8dc6ff; stroke:none;" d="M213 191L214 192L213 191z"/>
<path style="fill:#afd7ff; stroke:none;" d="M288 191L289 192L288 191z"/>
<path style="fill:#8dc6ff; stroke:none;" d="M212 192L213 193L212 192M287 192L288 193L287 192M211 193L212 194L211 193M286 193L287 194L286 193z"/>
<path style="fill:#afd7ff; stroke:none;" d="M210 194L211 195L210 194M209 195L210 196L209 195M208 196L209 197L208 196z"/>
<path style="fill:#cbe5ff; stroke:none;" d="M284 196L285 197L284 196M207 197L208 198L207 197M283 197L284 198L283 197M206 198L207 199L206 198M282 198L283 199L282 198z"/>
<path style="fill:#afd7ff; stroke:none;" d="M281 199L282 200L281 199M280 200L281 201L280 200z"/>
<path style="fill:#8dc6ff; stroke:none;" d="M204 201L205 202L204 201M279 201L280 202L279 201M203 202L204 203L203 202M278 202L279 203L278 202M202 203L203 204L202 203z"/>
<path style="fill:#afd7ff; stroke:none;" d="M201 204L202 205L201 204M200 205L201 206L200 205z"/>
<path style="fill:#cbe5ff; stroke:none;" d="M199 206L200 207L199 206M275 206L276 207L275 206M198 207L199 208L198 207M274 207L275 208L274 207M197 208L198 209L197 208z"/>
<path style="fill:#afd7ff; stroke:none;" d="M273 208L274 209L273 208M272 209L273 210L272 209z"/>
<path style="fill:#8dc6ff; stroke:none;" d="M271 210L272 211L271 210M195 211L196 212L195 211M270 211L271 212L270 211M194 212L195 213L194 212M269 212L270 213L269 212M193 213L194 214L193 213z"/>
<path style="fill:#afd7ff; stroke:none;" d="M192 214L193 215L192 214M191 215L192 216L191 215z"/>
<path style="fill:#cbe5ff; stroke:none;" d="M267 215L268 216L267 215M190 216L191 217L190 216M266 216L267 217L266 216M189 217L190 218L189 217z"/>
<path style="fill:#afd7ff; stroke:none;" d="M265 217L266 218L265 217z"/>
<path style="fill:#cbe5ff; stroke:none;" d="M188 218L189 219L188 218z"/>
<path style="fill:#afd7ff; stroke:none;" d="M264 218L265 219L264 218z"/>
<path style="fill:#8dc6ff; stroke:none;" d="M263 219L264 220L263 219M262 220L263 221L262 220M186 221L187 222L186 221M261 221L262 222L261 221M185 222L186 223L185 222M184 223L185 224L184 223z"/>
<path style="fill:#afd7ff; stroke:none;" d="M183 224L184 225L183 224z"/>
<path style="fill:#cbe5ff; stroke:none;" d="M259 224L260 225L259 224z"/>
<path style="fill:#afd7ff; stroke:none;" d="M182 225L183 226L182 225z"/>
<path style="fill:#cbe5ff; stroke:none;" d="M258 225L259 226L258 225M181 226L182 227L181 226z"/>
<path style="fill:#afd7ff; stroke:none;" d="M257 226L258 227L257 226z"/>
<path style="fill:#cbe5ff; stroke:none;" d="M180 227L181 228L180 227z"/>
<path style="fill:#afd7ff; stroke:none;" d="M256 227L257 228L256 227z"/>
<path style="fill:#cbe5ff; stroke:none;" d="M179 228L180 229L179 228z"/>
<path style="fill:#8dc6ff; stroke:none;" d="M255 228L256 229L255 228M254 229L255 230L254 229M253 230L254 231L253 230M177 231L178 232L177 231M176 232L177 233L176 232M175 233L176 234L175 233z"/>
<path style="fill:#cbe5ff; stroke:none;" d="M251 233L252 234L251 233z"/>
<path style="fill:#8dc6ff; stroke:none;" d="M174 234L175 235L174 234z"/>
<path style="fill:#cbe5ff; stroke:none;" d="M250 234L251 235L250 234z"/>
<path style="fill:#afd7ff; stroke:none;" d="M249 235L250 236L249 235M248 236L249 237L248 236z"/>
<path style="fill:#8dc6ff; stroke:none;" d="M248 237L249 238L248 237z"/>
<path style="fill:#afd7ff; stroke:none;" d="M249 238L250 239L249 238z"/>
<path style="fill:#cbe5ff; stroke:none;" d="M250 239L251 240L250 239z"/>
<path style="fill:#8dc6ff; stroke:none;" d="M251 241L252 242L251 241z"/>
<path style="fill:#afd7ff; stroke:none;" d="M252 242L253 243L252 242z"/>
<path style="fill:#cbe5ff; stroke:none;" d="M253 243L254 244L253 243z"/>
<path style="fill:#8dc6ff; stroke:none;" d="M254 245L255 246L254 245z"/>
<path style="fill:#afd7ff; stroke:none;" d="M255 246L256 247L255 246z"/>
<path style="fill:#cbe5ff; stroke:none;" d="M256 247L257 248L256 247z"/>
<path style="fill:#8dc6ff; stroke:none;" d="M257 249L258 250L257 249z"/>
<path style="fill:#afd7ff; stroke:none;" d="M258 250L259 251L258 250z"/>
<path style="fill:#cbe5ff; stroke:none;" d="M259 251L260 252L259 251z"/>
<path style="fill:#8dc6ff; stroke:none;" d="M260 253L261 254L260 253z"/>
<path style="fill:#afd7ff; stroke:none;" d="M261 254L262 255L261 254z"/>
<path style="fill:#cbe5ff; stroke:none;" d="M262 255L263 256L262 255z"/>
<path style="fill:#8dc6ff; stroke:none;" d="M264 258L265 259L264 258z"/>
<path style="fill:#afd7ff; stroke:none;" d="M265 259L266 260L265 259z"/>
<path style="fill:#cbe5ff; stroke:none;" d="M266 260L267 261L266 260z"/>
<path style="fill:#8dc6ff; stroke:none;" d="M267 262L268 263L267 262z"/>
<path style="fill:#afd7ff; stroke:none;" d="M268 263L269 264L268 263z"/>
<path style="fill:#cbe5ff; stroke:none;" d="M269 264L270 265L269 264z"/>
<path style="fill:#8dc6ff; stroke:none;" d="M270 266L271 267L270 266z"/>
<path style="fill:#afd7ff; stroke:none;" d="M271 267L272 268L271 267z"/>
<path style="fill:#cbe5ff; stroke:none;" d="M272 268L273 269L272 268z"/>
<path style="fill:#8dc6ff; stroke:none;" d="M273 270L274 271L273 270z"/>
<path style="fill:#afd7ff; stroke:none;" d="M274 271L275 272L274 271z"/>
<path style="fill:#cbe5ff; stroke:none;" d="M275 272L276 273L275 272z"/>
<path style="fill:#8dc6ff; stroke:none;" d="M276 274L277 275L276 274z"/>
<path style="fill:#afd7ff; stroke:none;" d="M277 275L278 276L277 275z"/>
<path style="fill:#cbe5ff; stroke:none;" d="M278 276L279 277L278 276z"/>
<path style="fill:#8dc6ff; stroke:none;" d="M279 278L280 279L279 278z"/>
<path style="fill:#afd7ff; stroke:none;" d="M280 279L281 280L280 279z"/>
<path style="fill:#cbe5ff; stroke:none;" d="M207 280L208 281L207 280z"/>
<path style="fill:#8dc6ff; stroke:none;" d="M208 280L209 281L208 280z"/>
<path style="fill:#cbe5ff; stroke:none;" d="M281 280L282 281L281 280M205 282L206 283L205 282M209 282L210 283L209 282z"/>
<path style="fill:#8dc6ff; stroke:none;" d="M282 282L283 283L282 282z"/>
<path style="fill:#cbe5ff; stroke:none;" d="M204 283L205 284L204 283z"/>
<path style="fill:#afd7ff; stroke:none;" d="M210 283L211 284L210 283z"/>
<path style="fill:#8dc6ff; stroke:none;" d="M283 283L284 284L283 283z"/>
<path style="fill:#cbe5ff; stroke:none;" d="M203 284L204 285L203 284z"/>
<path style="fill:#8dc6ff; stroke:none;" d="M211 284L212 285L211 284z"/>
<path style="fill:#afd7ff; stroke:none;" d="M284 284L285 285L284 284z"/>
<path style="fill:#cbe5ff; stroke:none;" d="M202 285L203 286L202 285M285 285L286 286L285 285M201 286L202 287L201 286M212 286L213 287L212 286M200 287L201 288L200 287z"/>
<path style="fill:#afd7ff; stroke:none;" d="M213 287L214 288L213 287z"/>
<path style="fill:#8dc6ff; stroke:none;" d="M286 287L287 288L286 287z"/>
<path style="fill:#cbe5ff; stroke:none;" d="M199 288L200 289L199 288z"/>
<path style="fill:#8dc6ff; stroke:none;" d="M214 288L215 289L214 288z"/>
<path style="fill:#afd7ff; stroke:none;" d="M287 288L288 289L287 288M198 289L199 290L198 289z"/>
<path style="fill:#cbe5ff; stroke:none;" d="M288 289L289 290L288 289z"/>
<path style="fill:#afd7ff; stroke:none;" d="M197 290L198 291L197 290z"/>
<path style="fill:#cbe5ff; stroke:none;" d="M215 290L216 291L215 290z"/>
<path style="fill:#afd7ff; stroke:none;" d="M196 291L197 292L196 291M216 291L217 292L216 291z"/>
<path style="fill:#8dc6ff; stroke:none;" d="M289 291L290 292L289 291z"/>
<path style="fill:#afd7ff; stroke:none;" d="M195 292L196 293L195 292z"/>
<path style="fill:#8dc6ff; stroke:none;" d="M217 292L218 293L217 292z"/>
<path style="fill:#afd7ff; stroke:none;" d="M290 292L291 293L290 292M194 293L195 294L194 293z"/>
<path style="fill:#8dc6ff; stroke:none;" d="M218 293L219 294L218 293z"/>
<path style="fill:#cbe5ff; stroke:none;" d="M291 293L292 294L291 293z"/>
<path style="fill:#afd7ff; stroke:none;" d="M193 294L194 295L193 294z"/>
<path style="fill:#cbe5ff; stroke:none;" d="M218 294L219 295L218 294z"/>
<path style="fill:#8dc6ff; stroke:none;" d="M192 295L193 296L192 295z"/>
<path style="fill:#cbe5ff; stroke:none;" d="M219 295L220 296L219 295z"/>
<path style="fill:#8dc6ff; stroke:none;" d="M292 295L293 296L292 295M191 296L192 297L191 296M220 296L221 297L220 296z"/>
<path style="fill:#afd7ff; stroke:none;" d="M293 296L294 297L293 296z"/>
<path style="fill:#8dc6ff; stroke:none;" d="M190 297L191 298L190 297M221 297L222 298L221 297z"/>
<path style="fill:#cbe5ff; stroke:none;" d="M294 297L295 298L294 297z"/>
<path style="fill:#8dc6ff; stroke:none;" d="M189 298L190 299L189 298M188 299L189 300L188 299z"/>
<path style="fill:#cbe5ff; stroke:none;" d="M222 299L223 300L222 299z"/>
<path style="fill:#8dc6ff; stroke:none;" d="M295 299L296 300L295 299M187 300L188 301L187 300z"/>
<path style="fill:#afd7ff; stroke:none;" d="M223 300L224 301L223 300M296 300L297 301L296 300z"/>
<path style="fill:#8dc6ff; stroke:none;" d="M186 301L187 302L186 301M224 301L225 302L224 301z"/>
<path style="fill:#cbe5ff; stroke:none;" d="M297 301L298 302L297 301z"/>
<path style="fill:#8dc6ff; stroke:none;" d="M185 302L186 303L185 302z"/>
<path style="fill:#cbe5ff; stroke:none;" d="M225 303L226 304L225 303z"/>
<path style="fill:#8dc6ff; stroke:none;" d="M298 303L299 304L298 303z"/>
<path style="fill:#afd7ff; stroke:none;" d="M226 304L227 305L226 304M299 304L300 305L299 304z"/>
<path style="fill:#8dc6ff; stroke:none;" d="M227 305L228 306L227 305z"/>
<path style="fill:#cbe5ff; stroke:none;" d="M300 305L301 306L300 305M228 307L229 308L228 307z"/>
<path style="fill:#8dc6ff; stroke:none;" d="M301 307L302 308L301 307z"/>
<path style="fill:#afd7ff; stroke:none;" d="M229 308L230 309L229 308z"/>
<path style="fill:#8dc6ff; stroke:none;" d="M302 308L303 309L302 308z"/>
<path style="fill:#cbe5ff; stroke:none;" d="M179 309L180 310L179 309z"/>
<path style="fill:#8dc6ff; stroke:none;" d="M230 309L231 310L230 309z"/>
<path style="fill:#afd7ff; stroke:none;" d="M303 309L304 310L303 309z"/>
<path style="fill:#cbe5ff; stroke:none;" d="M178 310L179 311L178 310M304 310L305 311L304 310M177 311L178 312L177 311M231 311L232 312L231 311M176 312L177 313L176 312z"/>
<path style="fill:#afd7ff; stroke:none;" d="M232 312L233 313L232 312z"/>
<path style="fill:#8dc6ff; stroke:none;" d="M305 312L306 313L305 312z"/>
<path style="fill:#cbe5ff; stroke:none;" d="M175 313L176 314L175 313z"/>
<path style="fill:#8dc6ff; stroke:none;" d="M233 313L234 314L233 313z"/>
<path style="fill:#afd7ff; stroke:none;" d="M306 313L307 314L306 313z"/>
<path style="fill:#cbe5ff; stroke:none;" d="M174 314L175 315L174 314z"/>
<path style="fill:#8dc6ff; stroke:none;" d="M234 314L235 315L234 314z"/>
<path style="fill:#cbe5ff; stroke:none;" d="M307 314L308 315L307 314M234 315L235 316L234 315M235 316L236 317L235 316z"/>
<path style="fill:#8dc6ff; stroke:none;" d="M308 316L309 317L308 316z"/>
<path style="fill:#afd7ff; stroke:none;" d="M236 317L237 318L236 317M309 317L310 318L309 317z"/>
<path style="fill:#8dc6ff; stroke:none;" d="M237 318L238 319L237 318z"/>
<path style="fill:#cbe5ff; stroke:none;" d="M310 318L311 319L310 318M238 320L239 321L238 320z"/>
<path style="fill:#8dc6ff; stroke:none;" d="M311 320L312 321L311 320z"/>
<path style="fill:#afd7ff; stroke:none;" d="M239 321L240 322L239 321M312 321L313 322L312 321z"/>
<path style="fill:#8dc6ff; stroke:none;" d="M240 322L241 323L240 322z"/>
<path style="fill:#cbe5ff; stroke:none;" d="M313 322L314 323L313 322M241 324L242 325L241 324z"/>
<path style="fill:#8dc6ff; stroke:none;" d="M314 324L315 325L314 324z"/>
<path style="fill:#afd7ff; stroke:none;" d="M242 325L243 326L242 325M315 325L316 326L315 325z"/>
<path style="fill:#8dc6ff; stroke:none;" d="M243 326L244 327L243 326z"/>
<path style="fill:#cbe5ff; stroke:none;" d="M316 326L317 327L316 326M244 328L245 329L244 328z"/>
<path style="fill:#8dc6ff; stroke:none;" d="M317 328L318 329L317 328z"/>
<path style="fill:#afd7ff; stroke:none;" d="M245 329L246 330L245 329M318 329L319 330L318 329z"/>
<path style="fill:#8dc6ff; stroke:none;" d="M246 330L247 331L246 330z"/>
<path style="fill:#cbe5ff; stroke:none;" d="M319 330L320 331L319 330M247 332L248 333L247 332z"/>
<path style="fill:#8dc6ff; stroke:none;" d="M320 332L321 333L320 332z"/>
<path style="fill:#afd7ff; stroke:none;" d="M248 333L249 334L248 333z"/>
<path style="fill:#8dc6ff; stroke:none;" d="M321 333L322 334L321 333M249 334L250 335L249 334z"/>
<path style="fill:#afd7ff; stroke:none;" d="M322 334L323 335L322 334z"/>
<path style="fill:#8dc6ff; stroke:none;" d="M250 335L251 336L250 335z"/>
<path style="fill:#cbe5ff; stroke:none;" d="M323 335L324 336L323 335M251 337L252 338L251 337z"/>
<path style="fill:#8dc6ff; stroke:none;" d="M324 337L325 338L324 337z"/>
<path style="fill:#afd7ff; stroke:none;" d="M252 338L253 339L252 338M325 338L326 339L325 338z"/>
<path style="fill:#8dc6ff; stroke:none;" d="M253 339L254 340L253 339z"/>
<path style="fill:#cbe5ff; stroke:none;" d="M326 339L327 340L326 339M254 341L255 342L254 341z"/>
<path style="fill:#8dc6ff; stroke:none;" d="M327 341L328 342L327 341z"/>
<path style="fill:#afd7ff; stroke:none;" d="M255 342L256 343L255 342M328 342L329 343L328 342z"/>
<path style="fill:#8dc6ff; stroke:none;" d="M256 343L257 344L256 343z"/>
<path style="fill:#cbe5ff; stroke:none;" d="M329 343L330 344L329 343M257 345L258 346L257 345z"/>
<path style="fill:#8dc6ff; stroke:none;" d="M330 345L331 346L330 345z"/>
<path style="fill:#afd7ff; stroke:none;" d="M258 346L259 347L258 346M331 346L332 347L331 346z"/>
<path style="fill:#8dc6ff; stroke:none;" d="M259 347L260 348L259 347z"/>
<path style="fill:#cbe5ff; stroke:none;" d="M332 347L333 348L332 347M260 349L261 350L260 349z"/>
<path style="fill:#8dc6ff; stroke:none;" d="M333 349L334 350L333 349z"/>
<path style="fill:#afd7ff; stroke:none;" d="M261 350L262 351L261 350M334 350L335 351L334 350z"/>
<path style="fill:#8dc6ff; stroke:none;" d="M262 351L263 352L262 351z"/>
<path style="fill:#cbe5ff; stroke:none;" d="M335 351L336 352L335 351M263 353L264 354L263 353z"/>
<path style="fill:#8dc6ff; stroke:none;" d="M336 353L337 354L336 353z"/>
<path style="fill:#afd7ff; stroke:none;" d="M264 354L265 355L264 354M337 354L338 355L337 354z"/>
<path style="fill:#8dc6ff; stroke:none;" d="M265 355L266 356L265 355z"/>
<path style="fill:#cbe5ff; stroke:none;" d="M338 355L339 356L338 355z"/>
<path style="fill:#8dc6ff; stroke:none;" d="M266 356L267 357L266 356M339 357L340 358L339 357z"/>
<path style="fill:#cbe5ff; stroke:none;" d="M267 358L268 359L267 358z"/>
<path style="fill:#8dc6ff; stroke:none;" d="M340 358L341 359L340 358z"/>
<path style="fill:#afd7ff; stroke:none;" d="M268 359L269 360L268 359M341 359L342 360L341 359z"/>
<path style="fill:#8dc6ff; stroke:none;" d="M269 360L270 361L269 360z"/>
<path style="fill:#cbe5ff; stroke:none;" d="M342 360L343 361L342 360M270 362L271 363L270 362z"/>
<path style="fill:#8dc6ff; stroke:none;" d="M343 362L344 363L343 362z"/>
<path style="fill:#afd7ff; stroke:none;" d="M271 363L272 364L271 363M344 363L345 364L344 363z"/>
<path style="fill:#8dc6ff; stroke:none;" d="M272 364L273 365L272 364z"/>
<path style="fill:#cbe5ff; stroke:none;" d="M345 364L346 365L345 364M273 366L274 367L273 366z"/>
<path style="fill:#8dc6ff; stroke:none;" d="M346 366L347 367L346 366z"/>
<path style="fill:#afd7ff; stroke:none;" d="M274 367L275 368L274 367M347 367L348 368L347 367z"/>
<path style="fill:#8dc6ff; stroke:none;" d="M275 368L276 369L275 368z"/>
<path style="fill:#cbe5ff; stroke:none;" d="M348 368L349 369L348 368M276 370L277 371L276 370z"/>
<path style="fill:#8dc6ff; stroke:none;" d="M349 370L350 371L349 370z"/>
<path style="fill:#afd7ff; stroke:none;" d="M277 371L278 372L277 371M350 371L351 372L350 371z"/>
<path style="fill:#8dc6ff; stroke:none;" d="M278 372L279 373L278 372z"/>
<path style="fill:#cbe5ff; stroke:none;" d="M351 372L352 373L351 372M279 374L280 375L279 374z"/>
<path style="fill:#8dc6ff; stroke:none;" d="M352 374L353 375L352 374z"/>
<path style="fill:#afd7ff; stroke:none;" d="M280 375L281 376L280 375M353 375L354 376L353 375z"/>
<path style="fill:#8dc6ff; stroke:none;" d="M281 376L282 377L281 376z"/>
<path style="fill:#cbe5ff; stroke:none;" d="M354 376L355 377L354 376z"/>
<path style="fill:#8dc6ff; stroke:none;" d="M282 377L283 378L282 377M355 378L356 379L355 378z"/>
<path style="fill:#cbe5ff; stroke:none;" d="M283 379L284 380L283 379z"/>
<path style="fill:#afd7ff; stroke:none;" d="M356 379L357 380L356 379M284 380L285 381L284 380z"/>
<path style="fill:#cbe5ff; stroke:none;" d="M357 380L358 381L357 380z"/>
<path style="fill:#8dc6ff; stroke:none;" d="M285 381L286 382L285 381M358 382L359 383L358 382z"/>
<path style="fill:#cbe5ff; stroke:none;" d="M286 383L287 384L286 383z"/>
<path style="fill:#8dc6ff; stroke:none;" d="M359 383L360 384L359 383z"/>
<path style="fill:#afd7ff; stroke:none;" d="M287 384L288 385L287 384M360 384L361 385L360 384z"/>
<path style="fill:#8dc6ff; stroke:none;" d="M288 385L289 386L288 385z"/>
<path style="fill:#cbe5ff; stroke:none;" d="M361 385L362 386L361 385M289 387L290 388L289 387z"/>
<path style="fill:#8dc6ff; stroke:none;" d="M362 387L363 388L362 387z"/>
<path style="fill:#afd7ff; stroke:none;" d="M290 388L291 389L290 388M363 388L364 389L363 388z"/>
<path style="fill:#8dc6ff; stroke:none;" d="M291 389L292 390L291 389z"/>
<path style="fill:#cbe5ff; stroke:none;" d="M364 389L365 390L364 389M292 391L293 392L292 391z"/>
<path style="fill:#8dc6ff; stroke:none;" d="M365 391L366 392L365 391z"/>
<path style="fill:#afd7ff; stroke:none;" d="M293 392L294 393L293 392M366 392L367 393L366 392z"/>
<path style="fill:#8dc6ff; stroke:none;" d="M294 393L295 394L294 393z"/>
<path style="fill:#cbe5ff; stroke:none;" d="M367 393L368 394L367 393z"/>
<path style="fill:#8dc6ff; stroke:none;" d="M368 395L369 396L368 395z"/>
<path style="fill:#cbe5ff; stroke:none;" d="M296 396L297 397L296 396z"/>
<path style="fill:#afd7ff; stroke:none;" d="M369 396L370 397L369 396z"/>
<path style="fill:#8dc6ff; stroke:none;" d="M297 397L298 398L297 397z"/>
<path style="fill:#cbe5ff; stroke:none;" d="M370 397L371 398L370 397z"/>
<path style="fill:#8dc6ff; stroke:none;" d="M298 398L299 399L298 398M371 399L372 400L371 399z"/>
<path style="fill:#cbe5ff; stroke:none;" d="M299 400L300 401L299 400z"/>
<path style="fill:#afd7ff; stroke:none;" d="M372 400L373 401L372 400M300 401L301 402L300 401z"/>
<path style="fill:#cbe5ff; stroke:none;" d="M373 401L374 402L373 401z"/>
<path style="fill:#8dc6ff; stroke:none;" d="M301 402L302 403L301 402M374 403L375 404L374 403z"/>
<path style="fill:#cbe5ff; stroke:none;" d="M302 404L303 405L302 404z"/>
<path style="fill:#afd7ff; stroke:none;" d="M375 404L376 405L375 404M303 405L304 406L303 405z"/>
<path style="fill:#cbe5ff; stroke:none;" d="M376 405L377 406L376 405z"/>
<path style="fill:#8dc6ff; stroke:none;" d="M304 406L305 407L304 406M377 407L378 408L377 407z"/>
<path style="fill:#cbe5ff; stroke:none;" d="M305 408L306 409L305 408z"/>
<path style="fill:#8dc6ff; stroke:none;" d="M378 408L379 409L378 408z"/>
<path style="fill:#afd7ff; stroke:none;" d="M306 409L307 410L306 409M379 409L380 410L379 409z"/>
<path style="fill:#8dc6ff; stroke:none;" d="M307 410L308 411L307 410z"/>
<path style="fill:#cbe5ff; stroke:none;" d="M380 410L381 411L380 410M308 412L309 413L308 412z"/>
<path style="fill:#8dc6ff; stroke:none;" d="M381 412L382 413L381 412z"/>
<path style="fill:#afd7ff; stroke:none;" d="M309 413L310 414L309 413M382 413L383 414L382 413z"/>
<path style="fill:#8dc6ff; stroke:none;" d="M310 414L311 415L310 414z"/>
<path style="fill:#cbe5ff; stroke:none;" d="M383 414L384 415L383 414z"/>
<path style="fill:#8dc6ff; stroke:none;" d="M311 415L312 416L311 415M384 416L385 417L384 416z"/>
<path style="fill:#cbe5ff; stroke:none;" d="M312 417L313 418L312 417z"/>
<path style="fill:#afd7ff; stroke:none;" d="M385 417L386 418L385 417M313 418L314 419L313 418z"/>
<path style="fill:#cbe5ff; stroke:none;" d="M386 418L387 419L386 418z"/>
<path style="fill:#8dc6ff; stroke:none;" d="M314 419L315 420L314 419M387 420L388 421L387 420z"/>
<path style="fill:#cbe5ff; stroke:none;" d="M315 421L316 422L315 421z"/>
<path style="fill:#afd7ff; stroke:none;" d="M388 421L389 422L388 421M316 422L317 423L316 422z"/>
<path style="fill:#cbe5ff; stroke:none;" d="M389 422L390 423L389 422z"/>
<path style="fill:#8dc6ff; stroke:none;" d="M317 423L318 424L317 423M390 424L391 425L390 424z"/>
<path style="fill:#cbe5ff; stroke:none;" d="M318 425L319 426L318 425z"/>
<path style="fill:#afd7ff; stroke:none;" d="M391 425L392 426L391 425M319 426L320 427L319 426z"/>
<path style="fill:#cbe5ff; stroke:none;" d="M392 426L393 427L392 426z"/>
<path style="fill:#8dc6ff; stroke:none;" d="M320 427L321 428L320 427M393 428L394 429L393 428z"/>
<path style="fill:#cbe5ff; stroke:none;" d="M321 429L322 430L321 429z"/>
<path style="fill:#afd7ff; stroke:none;" d="M394 429L395 430L394 429M322 430L323 431L322 430z"/>
<path style="fill:#cbe5ff; stroke:none;" d="M395 430L396 431L395 430z"/>
<path style="fill:#8dc6ff; stroke:none;" d="M323 431L324 432L323 431M396 432L397 433L396 432z"/>
<path style="fill:#cbe5ff; stroke:none;" d="M324 433L325 434L324 433z"/>
<path style="fill:#8dc6ff; stroke:none;" d="M397 433L398 434L397 433z"/>
<path style="fill:#afd7ff; stroke:none;" d="M114 434L114 435L174 435L155 434L114 434z"/>
<path style="fill:#cbe5ff; stroke:none;" d="M325 434L326 435L325 434z"/>
<path style="fill:#afd7ff; stroke:none;" d="M326 434L326 435L398 435L375 434L326 434z"/>
</svg>
